<svg xmlns="http://www.w3.org/2000/svg" width="352" height="352" viewBox="0 0 352 352" fill="none"><circle cx="176" cy="176" r="176" fill="#E2F7E3"></circle><path d="M240.458 122.708C230.979 101.592 198.75 100.083 198.75 100.083C198.75 112.527 188.513 122.708 176 122.708C163.488 122.708 153.25 112.527 153.25 100.083C153.25 100.083 121.021 101.592 111.542 122.708C104.717 137.792 96.375 167.958 96.375 167.958L130.5 175.5V250.917H221.5V175.5L255.625 167.958C255.625 167.958 247.283 137.792 240.458 122.708ZM213.917 145.333V243.375H138.083V145.333H130.5V167.958L105.854 162.679C108.888 152.875 114.196 135.906 118.367 126.102C123.675 114.412 138.083 110.265 146.804 108.756C150.596 121.2 161.971 130.627 176 130.627C189.65 130.627 201.404 121.577 205.196 108.756C213.917 110.265 228.325 114.79 233.633 126.102C238.183 135.906 243.113 152.875 246.146 162.679L221.5 167.958V145.333H213.917Z" fill="#17262B"></path><rect x="148" y="146" width="56" height="57" fill="#29AB51"></rect></svg>