<svg xmlns="http://www.w3.org/2000/svg" width="352" height="352" viewBox="0 0 352 352" fill="none"><circle cx="176" cy="176" r="176" fill="#E2F7E3"></circle><path d="M255.625 168.417C255.625 168.417 247.283 138.083 240.458 122.917C230.979 101.683 198.75 100.167 198.75 100.167C191.167 102.063 183.583 103.2 176 103.2C168.417 103.2 160.833 102.063 153.25 100.167C153.25 100.167 121.021 101.683 111.542 122.917C104.717 138.083 96.375 168.417 96.375 168.417L130.5 176V251.833H221.5V176L255.625 168.417ZM213.917 244.25H138.083V145.667H130.5V168.417L105.854 163.108C108.888 153.25 114.196 136.188 118.367 126.329C125.192 111.163 147.562 108.508 152.492 108.129C160.075 110.025 168.038 110.783 176 110.783C183.583 110.783 191.546 110.025 199.508 108.129C204.438 108.508 226.808 111.542 233.633 126.329C238.183 136.188 243.113 153.25 246.146 163.108L221.5 168.417V145.667H213.917V244.25Z" fill="#17262B"></path><rect x="146" y="120" width="60" height="25" fill="#29AB51"></rect></svg>